<svg xmlns="http://www.w3.org/2000/svg" width="800" height="600" viewBox="0 0 800 600">
  <defs>
    <pattern id="grid" width="40" height="40" patternUnits="userSpaceOnUse">
      <path d="M 40 0 L 0 0 0 40" fill="none" stroke="#ccc" stroke-width="0.5"/>
    </pattern>
    <filter id="paper-texture" x="0" y="0" width="100%" height="100%">
      <feTurbulence type="fractalNoise" baseFrequency="0.04" numOctaves="5" result="noise"/>
      <feDisplacementMap in="SourceGraphic" in2="noise" scale="3" xChannelSelector="R" yChannelSelector="G"/>
    </filter>
  </defs>
  
  <!-- Background -->
  <rect width="100%" height="100%" fill="#f5f5f5" filter="url(#paper-texture)"/>
  <rect width="100%" height="100%" fill="url(#grid)" opacity="0.5"/>
  
  <!-- Lab equipment (abstract) -->
  <g fill="none" stroke="#333" stroke-width="0.8" opacity="0.1">
    <!-- Chemical structures and formulas -->
    <circle cx="100" cy="100" r="40"/>
    <circle cx="150" cy="100" r="40"/>
    <line x1="100" y1="100" x2="150" y2="100"/>
    
    <rect x="600" y="100" width="100" height="80" rx="5"/>
    <line x1="650" y1="100" x2="650" y2="80"/>
    <circle cx="650" cy="70" r="10"/>
    
    <path d="M 300 450 L 320 400 L 280 400 Z"/>
    <path d="M 290 400 L 290 350"/>
    <circle cx="290" cy="340" r="10"/>
    
    <path d="M 500 300 C 530 300, 530 350, 500 350 C 470 350, 470 300, 500 300"/>
    <path d="M 500 300 L 500 280"/>
    <path d="M 500 350 L 500 370"/>
    
    <!-- Molecular structures -->
    <circle cx="700" cy="500" r="5"/>
    <circle cx="720" cy="490" r="5"/>
    <circle cx="690" cy="480" r="5"/>
    <circle cx="710" cy="470" r="5"/>
    <line x1="700" y1="500" x2="720" y2="490"/>
    <line x1="700" y1="500" x2="690" y2="480"/>
    <line x1="690" y1="480" x2="710" y2="470"/>
    <line x1="720" y1="490" x2="710" y2="470"/>
    
    <circle cx="100" cy="400" r="5"/>
    <circle cx="120" cy="410" r="5"/>
    <circle cx="140" cy="400" r="5"/>
    <circle cx="120" cy="380" r="5"/>
    <line x1="100" y1="400" x2="120" y2="410"/>
    <line x1="120" y1="410" x2="140" y2="400"/>
    <line x1="140" y1="400" x2="120" y2="380"/>
    <line x1="120" y1="380" x2="100" y2="400"/>
  </g>
</svg>
